<?xml version="1.0" encoding="utf-8"?>
<!-- Generator: Adobe Illustrator 28.0.0, SVG Export Plug-In . SVG Version: 6.00 Build 0)  -->
<svg version="1.1" id="Layer_1" xmlns="http://www.w3.org/2000/svg" xmlns:xlink="http://www.w3.org/1999/xlink" x="0px" y="0px"
	 viewBox="0 0 330.9 126.7" style="enable-background:new 0 0 330.9 126.7;" xml:space="preserve">
<style type="text/css">
	.st0{display:none;fill:#E6007E;}
	.st1{display:none;fill:#133250;}
	.st2{display:none;}
	.st3{display:inline;}
	.st4{display:inline;clip-path:url(#SVGID_00000138562791452690604490000009603376320142053054_);}
	.st5{clip-path:url(#SVGID_00000060026344110694157070000012635387452457918614_);}
	.st6{display:inline;fill:#ADCC56;}
	.st7{font-family:'BarlowSemiCondensed-SemiBold';}
	.st8{font-size:29.2089px;}
	.st9{fill:#FFFFFF;}
	.st10{fill:none;stroke:#FFFFFF;stroke-width:2.504;stroke-miterlimit:10;}
</style>
<rect x="-613.3" y="-58.3" class="st0" width="481.9" height="241.6"/>
<rect x="-638.2" y="-298.1" class="st1" width="595.3" height="841.9"/>
<g class="st2">
	<defs>
		<rect id="SVGID_1_" x="-509.6" y="67.9" width="162.5" height="40"/>
	</defs>
	<clipPath id="SVGID_00000075856116759044764320000003494722819436911545_" class="st3">
		<use xlink:href="#SVGID_1_"  style="overflow:visible;"/>
	</clipPath>
	<g style="display:inline;clip-path:url(#SVGID_00000075856116759044764320000003494722819436911545_);">
		<defs>
			<rect id="SVGID_00000101102834701341678200000000838737212128393140_" x="-509.6" y="67.9" width="163" height="40.5"/>
		</defs>
		<clipPath id="SVGID_00000026847107264514232000000010998685435424098696_">
			<use xlink:href="#SVGID_00000101102834701341678200000000838737212128393140_"  style="overflow:visible;"/>
		</clipPath>
		<g style="clip-path:url(#SVGID_00000026847107264514232000000010998685435424098696_);">
			<defs>
				<rect id="SVGID_00000060016464320668943700000011789156692000450956_" x="-566.9" y="37" width="277.7" height="105.6"/>
			</defs>
			<clipPath id="SVGID_00000026856866885388333860000005023601585898173369_">
				<use xlink:href="#SVGID_00000060016464320668943700000011789156692000450956_"  style="overflow:visible;"/>
			</clipPath>
			<g transform="matrix(1 0 0 1 0 0)" style="clip-path:url(#SVGID_00000026856866885388333860000005023601585898173369_);">
				
					<image style="overflow:visible;" width="704" height="270" xlink:href="34B12240D8602339.png"  transform="matrix(0.3945 0 0 0.3913 -566.8755 36.9653)">
				</image>
			</g>
		</g>
	</g>
</g>
<g>
	<text transform="matrix(1 0 0 1 0.2641 110.7301)" class="st2"><tspan x="0" y="0" class="st6 st7 st8">E</tspan><tspan x="14.8" y="0" class="st6 st7 st8">x</tspan><tspan x="28.2" y="0" class="st6 st7 st8">p</tspan><tspan x="42.9" y="0" class="st6 st7 st8">e</tspan><tspan x="56.9" y="0" class="st6 st7 st8">r</tspan><tspan x="66.9" y="0" class="st6 st7 st8">t</tspan><tspan x="76.4" y="0" class="st6 st7 st8">i</tspan><tspan x="83.1" y="0" class="st6 st7 st8">s</tspan><tspan x="96" y="0" class="st6 st7 st8">e</tspan></text>
	<text transform="matrix(1 0 0 1 114.6469 110.7301)" class="st2"><tspan x="0" y="0" class="st6 st7 st8">i</tspan><tspan x="6.7" y="0" class="st6 st7 st8">n</tspan></text>
	<text transform="matrix(1 0 0 1 140.3617 110.7301)" class="st2"><tspan x="0" y="0" class="st6 st7 st8">L</tspan><tspan x="14.3" y="0" class="st6 st7 st8">i</tspan><tspan x="20.9" y="0" class="st6 st7 st8">v</tspan><tspan x="34.3" y="0" class="st6 st7 st8">i</tspan><tspan x="41" y="0" class="st6 st7 st8">n</tspan><tspan x="55.3" y="0" class="st6 st7 st8">g</tspan><tspan x="69.5" y="0" class="st6 st7 st8"> </tspan><tspan x="75.2" y="0" class="st6 st7 st8">S</tspan><tspan x="90.1" y="0" class="st6 st7 st8">e</tspan><tspan x="104.1" y="0" class="st6 st7 st8">c</tspan><tspan x="117.9" y="0" class="st6 st7 st8">t</tspan><tspan x="127.4" y="0" class="st6 st7 st8">o</tspan><tspan x="141.5" y="0" class="st6 st7 st8">rs</tspan></text>
	<g>
		<path class="st9" d="M141.2,112.1c0,8.1-6.3,14.6-14.2,14.6c-7.8,0-14.2-6.5-14.2-14.6s6.3-14.6,14.2-14.6
			C134.8,97.5,141.2,104,141.2,112.1"/>
		<path class="st9" d="M167.1,104.8c3.9,0,7,3.3,7,7.3c0,4-3.2,7.3-7,7.3c-3.9,0-7-3.3-7-7.3C160,108.1,163.2,104.8,167.1,104.8
			 M167.1,97.5c-7.8,0-14.2,6.5-14.2,14.6c0,8.1,6.3,14.6,14.2,14.6s14.2-6.5,14.2-14.6C181.3,104,174.9,97.5,167.1,97.5"/>
		<path class="st9" d="M207.1,104.8c3.9,0,7,3.3,7,7.3c0,4-3.2,7.3-7,7.3c-3.9,0-7-3.3-7-7.3C200.1,108.1,203.3,104.8,207.1,104.8
			 M207.1,97.5c-7.8,0-14.2,6.5-14.2,14.6c0,8.1,6.3,14.6,14.2,14.6s14.2-6.5,14.2-14.6C221.3,104,215,97.5,207.1,97.5"/>
	</g>
	<g>
		<g>
			<path class="st10" d="M39.8,70.7l-2.3-9.7c-0.1-0.3-0.2-0.4-0.5-0.4H18.4c-0.3,0-0.4,0.1-0.5,0.4l-2.3,9.7c-0.2,0.7-0.6,1-1.3,1
				h-12c-0.9,0-1.2-0.4-1-1.3L19.2,3c0.2-0.7,0.7-1,1.4-1H35c0.7,0,1.2,0.3,1.4,1l17.9,67.3l0.1,0.4c0,0.6-0.4,0.9-1.1,0.9H41.2
				C40.5,71.7,40,71.3,39.8,70.7z M20.7,49.5c0.1,0.1,0.3,0.1,0.4,0.1h13.1c0.1,0,0.3,0,0.4-0.1c0.1-0.1,0.2-0.2,0.1-0.4l-6.9-28.8
				c-0.1-0.3-0.2-0.4-0.3-0.4s-0.2,0.1-0.3,0.4l-6.7,28.8C20.5,49.3,20.6,49.4,20.7,49.5z"/>
			<path class="st10" d="M102.3,66.8c-4.1,3.3-9.3,4.9-15.8,4.9H64.3c-0.3,0-0.6-0.1-0.8-0.3c-0.2-0.2-0.3-0.5-0.3-0.8V3.2
				c0-0.3,0.1-0.6,0.3-0.8C63.7,2.2,63.9,2,64.3,2h20.8c7.1,0,12.6,1.6,16.5,4.7c3.9,3.2,5.9,7.9,5.9,14.4c0,6.6-2.6,11.3-7.7,14.2
				c-0.3,0.2-0.4,0.4-0.1,0.6c5.8,3.3,8.8,8.8,8.8,16.4C108.4,58.7,106.4,63.5,102.3,66.8z M77.1,14.6v15.6c0,0.3,0.2,0.5,0.5,0.5
				h7.6c2.7,0,4.7-0.7,6.3-2.2c1.5-1.5,2.3-3.5,2.3-6.1c0-2.7-0.7-4.7-2.2-6.2c-1.5-1.5-3.6-2.2-6.3-2.2h-7.6
				C77.3,14.1,77.1,14.3,77.1,14.6z M92.2,57.2c1.5-1.6,2.2-3.8,2.2-6.6c0-2.8-0.7-5.1-2.2-6.7c-1.5-1.6-3.6-2.4-6.2-2.4h-8.4
				c-0.3,0-0.5,0.2-0.5,0.5V59c0,0.3,0.2,0.5,0.5,0.5H86C88.6,59.5,90.7,58.8,92.2,57.2z"/>
			<path class="st10" d="M128.4,69.8c-3.5-1.9-6.2-4.5-8.1-7.9c-1.9-3.4-2.9-7.3-2.9-11.8V23.6c0-4.4,1-8.4,2.9-11.7
				c1.9-3.4,4.6-6,8.1-7.9c3.5-1.9,7.5-2.8,12.1-2.8c4.6,0,8.6,0.9,12.1,2.8c3.5,1.9,6.2,4.5,8.2,7.9c1.9,3.4,2.9,7.3,2.9,11.7v26.5
				c0,4.5-1,8.5-2.9,11.8c-1.9,3.4-4.6,6-8.2,7.9c-3.5,1.9-7.6,2.8-12.1,2.8C135.9,72.6,131.9,71.6,128.4,69.8z M147.1,57.8
				c1.7-1.8,2.5-4.2,2.5-7.1V23.2c0-3-0.8-5.4-2.5-7.2c-1.7-1.8-3.9-2.7-6.7-2.7c-2.7,0-4.9,0.9-6.6,2.7c-1.7,1.8-2.5,4.2-2.5,7.2
				v27.5c0,2.9,0.8,5.3,2.5,7.1c1.7,1.8,3.8,2.7,6.6,2.7C143.3,60.5,145.5,59.6,147.1,57.8z"/>
			<path class="st10" d="M174.6,71.3c-0.2-0.2-0.3-0.5-0.3-0.8V3.2c0-0.3,0.1-0.6,0.3-0.8c0.2-0.2,0.5-0.3,0.8-0.3h21.4
				c4.4,0,8.4,0.8,11.8,2.5c3.4,1.7,6.1,4,7.9,7.1c1.9,3.1,2.8,6.6,2.8,10.6v29.2c0,4-0.9,7.6-2.8,10.6c-1.9,3.1-4.5,5.4-7.9,7.1
				c-3.4,1.7-7.3,2.5-11.8,2.5h-21.4C175.2,71.7,174.9,71.6,174.6,71.3z M188.8,59.6l8.2-0.1c2.5,0,4.4-0.9,6-2.6
				c1.5-1.8,2.3-4.1,2.4-7V23.8c0-3-0.8-5.4-2.3-7.1c-1.5-1.8-3.5-2.6-6.1-2.6h-8.2c-0.3,0-0.5,0.2-0.5,0.5v44.6
				C188.3,59.5,188.5,59.6,188.8,59.6z"/>
			<path class="st10" d="M240.3,69.7c-3.4-1.9-6.1-4.5-8-7.8c-1.9-3.3-2.8-7.2-2.8-11.6V3.2c0-0.3,0.1-0.6,0.3-0.8
				c0.2-0.2,0.5-0.3,0.8-0.3h11.6c0.3,0,0.6,0.1,0.8,0.3c0.2,0.2,0.3,0.5,0.3,0.8V51c0,2.9,0.8,5.1,2.4,6.9c1.6,1.7,3.7,2.6,6.4,2.6
				s4.8-0.9,6.4-2.6c1.6-1.7,2.4-4,2.4-6.9V3.2c0-0.3,0.1-0.6,0.3-0.8c0.2-0.2,0.5-0.3,0.8-0.3h11.6c0.3,0,0.6,0.1,0.8,0.3
				c0.2,0.2,0.3,0.5,0.3,0.8v47.1c0,4.4-0.9,8.2-2.8,11.6c-1.9,3.3-4.6,6-8,7.8c-3.4,1.9-7.4,2.8-11.9,2.8
				C247.8,72.5,243.8,71.5,240.3,69.7z"/>
			<path class="st10" d="M295.2,70c-3.4-1.6-6.1-3.9-8-6.9c-1.9-3-2.8-6.3-2.8-10.2v-2.6c0-0.3,0.1-0.6,0.3-0.8
				c0.2-0.2,0.5-0.3,0.8-0.3H297c0.3,0,0.6,0.1,0.8,0.3c0.2,0.2,0.3,0.5,0.3,0.8v1.9c0,2.3,0.9,4.3,2.6,5.8c1.7,1.6,4,2.3,7,2.3
				c2.6,0,4.6-0.7,5.9-2c1.4-1.3,2-3,2-5.1c0-1.5-0.4-2.8-1.3-3.9c-0.9-1.1-2.1-2.1-3.6-3.1c-1.6-1-4-2.3-7.2-3.9
				c-4-2-7.2-3.8-9.7-5.6c-2.5-1.7-4.7-3.9-6.5-6.7c-1.8-2.7-2.7-6-2.7-9.8c0-3.8,0.9-7.2,2.7-10.1c1.8-2.9,4.4-5.1,7.7-6.7
				c3.3-1.6,7.1-2.3,11.3-2.3c4.4,0,8.4,0.8,11.8,2.5c3.4,1.7,6.1,4.1,8.1,7.1c1.9,3.1,2.9,6.6,2.9,10.5v2c0,0.3-0.1,0.6-0.3,0.8
				c-0.2,0.2-0.5,0.3-0.8,0.3h-11.4c-0.3,0-0.6-0.1-0.8-0.3c-0.2-0.2-0.3-0.5-0.3-0.8v-1.8c0-2.4-0.8-4.4-2.5-6
				c-1.7-1.6-3.9-2.4-6.8-2.4c-2.4,0-4.3,0.6-5.6,1.8c-1.4,1.2-2,2.9-2,5.1c0,1.5,0.4,2.9,1.2,4c0.8,1.1,2,2.2,3.7,3.2
				c1.7,1,4.2,2.4,7.6,4l2.1,1.2c3.8,2.1,6.8,4,9,5.5c2.2,1.6,4,3.5,5.4,5.9c1.5,2.4,2.2,5.3,2.2,8.7c0,6-2,10.8-6.1,14.4
				c-4.1,3.5-9.5,5.3-16.3,5.3C302.7,72.5,298.7,71.7,295.2,70z"/>
		</g>
	</g>
</g>
</svg>
